<svg width="48" height="48" viewBox="0 0 48 48" fill="none" xmlns="http://www.w3.org/2000/svg">
  <defs>
    <linearGradient id="tile" x1="4" y1="4" x2="44" y2="44" gradientUnits="userSpaceOnUse">
      <stop stop-color="#8B5CF6"/>
      <stop offset="1" stop-color="#4338CA"/>
    </linearGradient>
    <linearGradient id="shine" x1="24" y1="0" x2="24" y2="26" gradientUnits="userSpaceOnUse">
      <stop stop-color="#FFFFFF" stop-opacity="0.20"/>
      <stop offset="1" stop-color="#FFFFFF" stop-opacity="0"/>
    </linearGradient>
  </defs>
  <rect width="48" height="48" rx="12" fill="url(#tile)"/>
  <rect width="48" height="48" rx="12" fill="url(#shine)"/>
  <path d="M24 21.5 C20.6 19.2 15.9 18.7 11.5 20.1 C11.2 20.2 11 20.5 11 20.8 V33.2 C11 33.7 11.5 34 12 33.9 C16.2 32.8 20.7 33.3 24 35.5 Z" fill="#FFFFFF" fill-opacity="0.95"/>
  <path d="M24 21.5 C27.4 19.2 32.1 18.7 36.5 20.1 C36.8 20.2 37 20.5 37 20.8 V33.2 C37 33.7 36.5 34 36 33.9 C31.8 32.8 27.3 33.3 24 35.5 Z" fill="#FFFFFF" fill-opacity="0.72"/>
  <path d="M24 6.5 C24.7 9.8 26.2 11.3 29.5 12 C26.2 12.7 24.7 14.2 24 17.5 C23.3 14.2 21.8 12.7 18.5 12 C21.8 11.3 23.3 9.8 24 6.5 Z" fill="#FFFFFF"/>
  <path d="M32 6.5 C32.35 8.1 33.1 8.85 34.7 9.2 C33.1 9.55 32.35 10.3 32 11.9 C31.65 10.3 30.9 9.55 29.3 9.2 C30.9 8.85 31.65 8.1 32 6.5 Z" fill="#FFFFFF" fill-opacity="0.85"/>
</svg>
